<mxfile host="app.diagrams.net" agent="Mozilla/5.0 (Windows NT 10.0; Win64; x64) AppleWebKit/537.36 (KHTML, like Gecko) Chrome/134.0.0.0 Safari/537.36 Edg/134.0.0.0" version="26.1.0">
  <diagram id="l8hXMBHkgcEJcSW0mbfh" name="Page-1">
    <mxGraphModel dx="2084" dy="1130" grid="1" gridSize="10" guides="1" tooltips="1" connect="1" arrows="1" fold="1" page="1" pageScale="1" pageWidth="1169" pageHeight="827" math="0" shadow="0">
      <root>
        <mxCell id="0" />
        <mxCell id="1" parent="0" />
        <mxCell id="91vOWmu6anMWhi9mx2zG-1" value="" style="whiteSpace=wrap;html=1;rounded=1;strokeColor=light-dark(#e50b0b, #ededed);" vertex="1" parent="1">
          <mxGeometry x="910" y="200" width="160" height="1030" as="geometry" />
        </mxCell>
        <mxCell id="91vOWmu6anMWhi9mx2zG-5" value="" style="shape=image;html=1;verticalAlign=top;verticalLabelPosition=bottom;labelBackgroundColor=#ffffff;imageAspect=0;aspect=fixed;image=https://cdn4.iconfinder.com/data/icons/for-your-interface-free-samples/128/Globe-128.png" vertex="1" parent="1">
          <mxGeometry x="916" y="212" width="28" height="28" as="geometry" />
        </mxCell>
        <mxCell id="91vOWmu6anMWhi9mx2zG-6" value="IBG Locations" style="text;html=1;align=center;verticalAlign=middle;resizable=0;points=[];autosize=1;strokeColor=none;fillColor=none;" vertex="1" parent="1">
          <mxGeometry x="930" y="211" width="100" height="30" as="geometry" />
        </mxCell>
        <mxCell id="91vOWmu6anMWhi9mx2zG-17" value="" style="group" vertex="1" connectable="0" parent="1">
          <mxGeometry x="925" y="252" width="100" height="100" as="geometry" />
        </mxCell>
        <mxCell id="91vOWmu6anMWhi9mx2zG-2" value="&lt;div&gt;IP: 10.xxx.xx.xx&lt;/div&gt;" style="whiteSpace=wrap;html=1;rounded=1;strokeColor=light-dark(#de21c5, #ededed);" vertex="1" parent="91vOWmu6anMWhi9mx2zG-17">
          <mxGeometry width="100" height="100" as="geometry" />
        </mxCell>
        <mxCell id="91vOWmu6anMWhi9mx2zG-3" value="" style="html=1;verticalLabelPosition=bottom;align=center;labelBackgroundColor=#ffffff;verticalAlign=top;strokeWidth=2;strokeColor=#0080F0;shadow=0;dashed=0;shape=mxgraph.ios7.icons.location;" vertex="1" parent="91vOWmu6anMWhi9mx2zG-17">
          <mxGeometry x="10" y="10" width="14" height="20" as="geometry" />
        </mxCell>
        <mxCell id="91vOWmu6anMWhi9mx2zG-7" value="KSA" style="text;html=1;align=center;verticalAlign=middle;resizable=0;points=[];autosize=1;strokeColor=none;fillColor=none;" vertex="1" parent="91vOWmu6anMWhi9mx2zG-17">
          <mxGeometry x="25" y="5" width="50" height="30" as="geometry" />
        </mxCell>
        <mxCell id="91vOWmu6anMWhi9mx2zG-22" value="" style="group" vertex="1" connectable="0" parent="1">
          <mxGeometry x="926" y="492" width="100" height="100" as="geometry" />
        </mxCell>
        <mxCell id="91vOWmu6anMWhi9mx2zG-23" value="&lt;div&gt;IP: 10.xxx.xx.xx&lt;/div&gt;" style="whiteSpace=wrap;html=1;rounded=1;strokeColor=light-dark(#de21c5, #ededed);" vertex="1" parent="91vOWmu6anMWhi9mx2zG-22">
          <mxGeometry width="100" height="100" as="geometry" />
        </mxCell>
        <mxCell id="91vOWmu6anMWhi9mx2zG-24" value="" style="html=1;verticalLabelPosition=bottom;align=center;labelBackgroundColor=#ffffff;verticalAlign=top;strokeWidth=2;strokeColor=#0080F0;shadow=0;dashed=0;shape=mxgraph.ios7.icons.location;" vertex="1" parent="91vOWmu6anMWhi9mx2zG-22">
          <mxGeometry x="10" y="10" width="14" height="20" as="geometry" />
        </mxCell>
        <mxCell id="91vOWmu6anMWhi9mx2zG-25" value="Egypt" style="text;html=1;align=center;verticalAlign=middle;resizable=0;points=[];autosize=1;strokeColor=none;fillColor=none;" vertex="1" parent="91vOWmu6anMWhi9mx2zG-22">
          <mxGeometry x="25" y="5" width="50" height="30" as="geometry" />
        </mxCell>
        <mxCell id="91vOWmu6anMWhi9mx2zG-32" value="" style="group" vertex="1" connectable="0" parent="1">
          <mxGeometry x="926" y="372" width="100" height="100" as="geometry" />
        </mxCell>
        <mxCell id="91vOWmu6anMWhi9mx2zG-33" value="&lt;div&gt;IP: 10.xxx.xx.xx&lt;/div&gt;" style="whiteSpace=wrap;html=1;rounded=1;strokeColor=light-dark(#de21c5, #ededed);" vertex="1" parent="91vOWmu6anMWhi9mx2zG-32">
          <mxGeometry width="100" height="100" as="geometry" />
        </mxCell>
        <mxCell id="91vOWmu6anMWhi9mx2zG-34" value="" style="html=1;verticalLabelPosition=bottom;align=center;labelBackgroundColor=#ffffff;verticalAlign=top;strokeWidth=2;strokeColor=#0080F0;shadow=0;dashed=0;shape=mxgraph.ios7.icons.location;" vertex="1" parent="91vOWmu6anMWhi9mx2zG-32">
          <mxGeometry x="10" y="10" width="14" height="20" as="geometry" />
        </mxCell>
        <mxCell id="91vOWmu6anMWhi9mx2zG-35" value="Bhrain" style="text;html=1;align=center;verticalAlign=middle;resizable=0;points=[];autosize=1;strokeColor=none;fillColor=none;" vertex="1" parent="91vOWmu6anMWhi9mx2zG-32">
          <mxGeometry x="20" y="5" width="60" height="30" as="geometry" />
        </mxCell>
        <mxCell id="91vOWmu6anMWhi9mx2zG-41" value="" style="group" vertex="1" connectable="0" parent="1">
          <mxGeometry x="926" y="615" width="100" height="100" as="geometry" />
        </mxCell>
        <mxCell id="91vOWmu6anMWhi9mx2zG-27" value="&lt;div&gt;IP: 10.xxx.xx.xx&lt;/div&gt;" style="whiteSpace=wrap;html=1;rounded=1;strokeColor=light-dark(#de21c5, #ededed);" vertex="1" parent="91vOWmu6anMWhi9mx2zG-41">
          <mxGeometry width="100" height="100" as="geometry" />
        </mxCell>
        <mxCell id="91vOWmu6anMWhi9mx2zG-39" value="" style="html=1;verticalLabelPosition=bottom;align=center;labelBackgroundColor=#ffffff;verticalAlign=top;strokeWidth=2;strokeColor=#0080F0;shadow=0;dashed=0;shape=mxgraph.ios7.icons.location;" vertex="1" parent="91vOWmu6anMWhi9mx2zG-41">
          <mxGeometry x="10" y="8" width="14" height="20" as="geometry" />
        </mxCell>
        <mxCell id="91vOWmu6anMWhi9mx2zG-40" value="Iraq" style="text;html=1;align=center;verticalAlign=middle;resizable=0;points=[];autosize=1;strokeColor=none;fillColor=none;" vertex="1" parent="91vOWmu6anMWhi9mx2zG-41">
          <mxGeometry x="24" y="4" width="40" height="30" as="geometry" />
        </mxCell>
        <mxCell id="91vOWmu6anMWhi9mx2zG-42" value="" style="group" vertex="1" connectable="0" parent="1">
          <mxGeometry x="930" y="742" width="100" height="100" as="geometry" />
        </mxCell>
        <mxCell id="91vOWmu6anMWhi9mx2zG-43" value="&lt;div&gt;IP: 10.xxx.xx.xx&lt;/div&gt;" style="whiteSpace=wrap;html=1;rounded=1;strokeColor=light-dark(#de21c5, #ededed);" vertex="1" parent="91vOWmu6anMWhi9mx2zG-42">
          <mxGeometry width="100" height="100" as="geometry" />
        </mxCell>
        <mxCell id="91vOWmu6anMWhi9mx2zG-44" value="" style="html=1;verticalLabelPosition=bottom;align=center;labelBackgroundColor=#ffffff;verticalAlign=top;strokeWidth=2;strokeColor=#0080F0;shadow=0;dashed=0;shape=mxgraph.ios7.icons.location;" vertex="1" parent="91vOWmu6anMWhi9mx2zG-42">
          <mxGeometry x="10" y="8" width="14" height="20" as="geometry" />
        </mxCell>
        <mxCell id="91vOWmu6anMWhi9mx2zG-45" value="UAE" style="text;html=1;align=center;verticalAlign=middle;resizable=0;points=[];autosize=1;strokeColor=none;fillColor=none;" vertex="1" parent="91vOWmu6anMWhi9mx2zG-42">
          <mxGeometry x="19" y="4" width="50" height="30" as="geometry" />
        </mxCell>
        <mxCell id="91vOWmu6anMWhi9mx2zG-46" value="" style="group" vertex="1" connectable="0" parent="1">
          <mxGeometry x="930" y="862" width="100" height="100" as="geometry" />
        </mxCell>
        <mxCell id="91vOWmu6anMWhi9mx2zG-47" value="&lt;div&gt;IP: 10.xxx.xx.xx&lt;/div&gt;" style="whiteSpace=wrap;html=1;rounded=1;strokeColor=light-dark(#de21c5, #ededed);" vertex="1" parent="91vOWmu6anMWhi9mx2zG-46">
          <mxGeometry width="100" height="100" as="geometry" />
        </mxCell>
        <mxCell id="91vOWmu6anMWhi9mx2zG-48" value="" style="html=1;verticalLabelPosition=bottom;align=center;labelBackgroundColor=#ffffff;verticalAlign=top;strokeWidth=2;strokeColor=#0080F0;shadow=0;dashed=0;shape=mxgraph.ios7.icons.location;" vertex="1" parent="91vOWmu6anMWhi9mx2zG-46">
          <mxGeometry x="10" y="8" width="14" height="20" as="geometry" />
        </mxCell>
        <mxCell id="91vOWmu6anMWhi9mx2zG-49" value="&amp;nbsp; &amp;nbsp; &amp;nbsp; Lebanon" style="text;html=1;align=center;verticalAlign=middle;resizable=0;points=[];autosize=1;strokeColor=none;fillColor=none;" vertex="1" parent="91vOWmu6anMWhi9mx2zG-46">
          <mxGeometry x="-1" y="4" width="90" height="30" as="geometry" />
        </mxCell>
        <mxCell id="91vOWmu6anMWhi9mx2zG-50" value="" style="group" vertex="1" connectable="0" parent="1">
          <mxGeometry x="930" y="982" width="100" height="100" as="geometry" />
        </mxCell>
        <mxCell id="91vOWmu6anMWhi9mx2zG-51" value="&lt;div&gt;IP: 10.xxx.xx.xx&lt;/div&gt;" style="whiteSpace=wrap;html=1;rounded=1;strokeColor=light-dark(#de21c5, #ededed);" vertex="1" parent="91vOWmu6anMWhi9mx2zG-50">
          <mxGeometry width="100" height="100" as="geometry" />
        </mxCell>
        <mxCell id="91vOWmu6anMWhi9mx2zG-52" value="" style="html=1;verticalLabelPosition=bottom;align=center;labelBackgroundColor=#ffffff;verticalAlign=top;strokeWidth=2;strokeColor=#0080F0;shadow=0;dashed=0;shape=mxgraph.ios7.icons.location;" vertex="1" parent="91vOWmu6anMWhi9mx2zG-50">
          <mxGeometry x="10" y="8" width="14" height="20" as="geometry" />
        </mxCell>
        <mxCell id="91vOWmu6anMWhi9mx2zG-53" value="&amp;nbsp; &amp;nbsp; &amp;nbsp; &amp;nbsp;Singapore" style="text;html=1;align=center;verticalAlign=middle;resizable=0;points=[];autosize=1;strokeColor=none;fillColor=none;" vertex="1" parent="91vOWmu6anMWhi9mx2zG-50">
          <mxGeometry x="-6" y="4" width="100" height="30" as="geometry" />
        </mxCell>
        <mxCell id="91vOWmu6anMWhi9mx2zG-54" value="" style="group" vertex="1" connectable="0" parent="1">
          <mxGeometry x="930" y="1102" width="100" height="100" as="geometry" />
        </mxCell>
        <mxCell id="91vOWmu6anMWhi9mx2zG-55" value="&lt;div&gt;IP: 10.xxx.xx.xx&lt;/div&gt;" style="whiteSpace=wrap;html=1;rounded=1;strokeColor=light-dark(#de21c5, #ededed);" vertex="1" parent="91vOWmu6anMWhi9mx2zG-54">
          <mxGeometry width="100" height="100" as="geometry" />
        </mxCell>
        <mxCell id="91vOWmu6anMWhi9mx2zG-56" value="" style="html=1;verticalLabelPosition=bottom;align=center;labelBackgroundColor=#ffffff;verticalAlign=top;strokeWidth=2;strokeColor=#0080F0;shadow=0;dashed=0;shape=mxgraph.ios7.icons.location;" vertex="1" parent="91vOWmu6anMWhi9mx2zG-54">
          <mxGeometry x="10" y="8" width="14" height="20" as="geometry" />
        </mxCell>
        <mxCell id="91vOWmu6anMWhi9mx2zG-57" value="China" style="text;html=1;align=center;verticalAlign=middle;resizable=0;points=[];autosize=1;strokeColor=none;fillColor=none;" vertex="1" parent="91vOWmu6anMWhi9mx2zG-54">
          <mxGeometry x="19" y="4" width="50" height="30" as="geometry" />
        </mxCell>
        <mxCell id="91vOWmu6anMWhi9mx2zG-58" value="" style="whiteSpace=wrap;html=1;strokeColor=light-dark(#0a38f0, #ededed);gradientColor=none;rounded=1;shadow=1;strokeWidth=2;" vertex="1" parent="1">
          <mxGeometry x="150" y="430" width="430" height="532" as="geometry" />
        </mxCell>
        <mxCell id="91vOWmu6anMWhi9mx2zG-59" value="" style="whiteSpace=wrap;html=1;strokeColor=light-dark(#0a38f0, #ededed);gradientColor=none;rounded=1;shadow=1;strokeWidth=2;" vertex="1" parent="1">
          <mxGeometry x="190" y="530" width="320" height="220" as="geometry" />
        </mxCell>
        <mxCell id="91vOWmu6anMWhi9mx2zG-60" value="&lt;font style=&quot;font-size: 21px; color: light-dark(rgb(230, 15, 15), rgb(237, 237, 237));&quot;&gt;Kuwait Data Center&lt;/font&gt;" style="text;html=1;align=center;verticalAlign=middle;resizable=0;points=[];autosize=1;strokeColor=none;fillColor=default;" vertex="1" parent="1">
          <mxGeometry x="215" y="466" width="210" height="40" as="geometry" />
        </mxCell>
        <mxCell id="91vOWmu6anMWhi9mx2zG-61" value="" style="whiteSpace=wrap;html=1;fillColor=none;rounded=1;strokeColor=light-dark(#344cad, #ededed);" vertex="1" parent="1">
          <mxGeometry x="194" y="461" width="260" height="44" as="geometry" />
        </mxCell>
        <mxCell id="91vOWmu6anMWhi9mx2zG-62" value="" style="sketch=0;outlineConnect=0;fontColor=#232F3E;gradientColor=none;fillColor=#232F3D;strokeColor=none;dashed=0;verticalLabelPosition=bottom;verticalAlign=top;align=center;html=1;fontSize=12;fontStyle=0;aspect=fixed;pointerEvents=1;shape=mxgraph.aws4.corporate_data_center;" vertex="1" parent="1">
          <mxGeometry x="200" y="467" width="22.42" height="33" as="geometry" />
        </mxCell>
      </root>
    </mxGraphModel>
  </diagram>
</mxfile>
